# xmcd
#
# Track frame offsets:
#	150
#	12560
#	23892
#	36565
#	52650
#	69250
#	83240
#	97040
#	114495
#	134155
#	145175
#	165385
#	191730
#	201697
#
# Disc length: 2988 seconds
#
# Revision: 2
# Processed by: cddbd v1.4PL0 Copyright (c) Steve Scherf et al.
# Submitted via: EZCDDA 4.3.2
#
DISCID=cc0baa0e
DTITLE=Maria Bethânea - A Força Que Nunca Seca (Ao Vivo) CD2
DYEAR=1900
DGENRE=
TTITLE0=Outra Vez
TTITLE1=Não Tenha Medo
TTITLE2=Mel
TTITLE3=Resposta
TTITLE4=Fala Baixinho
TTITLE5=As Flores do Jardim de Nossa Casa
TTITLE6=Resto de Mim
TTITLE7=Eu Queria que Você Viesse
TTITLE8=Marginália II
TTITLE9=Assentimento
TTITLE10=Roda Viva
TTITLE11=Navio Negreiro
TTITLE12=Vila do Adeus
TTITLE13=Na Carreira
EXTD=
EXTT0=
EXTT1=
EXTT2=
EXTT3=
EXTT4=
EXTT5=
EXTT6=
EXTT7=
EXTT8=
EXTT9=
EXTT10=
EXTT11=
EXTT12=
EXTT13=
PLAYORDER=
